<svg xmlns="http://www.w3.org/2000/svg" viewBox="0 0 1080 1080"><path fill="#806b65" d="M0 710v-15c2-2 5-2 7-1 16 1 31 4 45 10 4 1 5 1 6-3 2-3 5-4 8-5 2 0 3-1 3-3-1-14 2-28 5-41l8-29a111 111 0 0 1-4 12 129 129 0 0 0-10 30 68 68 0 0 1-4 13c-3 7-8 8-13 3-10-10-13-21-13-34 0-16 3-32 7-47a557 557 0 0 1 55-134l-18 16-28 28c-17 18-32 38-46 58a72 72 0 0 1-5 6c-1 1-1 2-3 2v-27c2-5 5-9 8-12a460 460 0 0 1 35-43 722 722 0 0 1 81-72 14 14 0 0 0 3-4l13-19 14-20-17 13a737 737 0 0 0-58 46 446 446 0 0 0-76 86c-1 1-1 3-3 2v-31a20 20 0 0 1 3-7l30-34c33-34 70-63 109-91l39-30a6 6 0 0 0 2-2 273 273 0 0 0-55-1l-32 2c-15 2-29 6-43 10l-36 13c-9 3-17 1-16-12a90 90 0 0 1 5-24c2-6 7-10 12-14 15-10 31-16 48-20 15-3 31-5 46-6h24l42 2c17 1 35 2 52-2a35 35 0 0 0 9-2l-2-4-8-14a41 41 0 0 1-2-19c1-10 7-17 16-21a347 347 0 0 1 42-12l12-3c-3-5-4-11-6-16-2-10-3-20-2-31a59 59 0 0 0 1-8c0-6 4-12 12-13h9c4 0 4-1 5-5a222 222 0 0 0 4-25 151 151 0 0 1 9-37c1-4 4-8 9-10a40 40 0 0 0 12-8c8-8 17-14 28-18a269 269 0 0 1 93-19h48c21-1 41 2 62 4l72 10 28 3a107 107 0 0 1 32 6c19 7 38 13 55 21a514 514 0 0 1 66 36c12 8 24 16 35 26a123 123 0 0 1 14 15c2 1 3 2 5 1 7-4 14-3 20 2 9 5 16 13 19 22 3 6 4 12 1 18-2 3-1 5 1 8a187 187 0 0 1 20 24c9 13 16 27 23 40l25 54 18 37c7 16 10 34 13 52l8 67 3 41 1 53c0 14-1 28-5 41a144 144 0 0 0-4 34 91 91 0 0 0 1 19 166 166 0 0 1 3 21c0 6 0 12-3 17a20 20 0 0 1-10 10l-12 4a12 12 0 0 0-6 8 45 45 0 0 1-4 9 17 17 0 0 1-6 7l-16 11a55 55 0 0 1-10 6l-39 19c-2 0-3 2-4 4-10 16-21 31-33 46-10 12-21 24-33 35a37 37 0 0 0-3 4c-17 20-33 42-46 66a195 195 0 0 0-24 92 29 29 0 0 1-1 8c-1 3-2 5-6 5l-3 2a124 124 0 0 0-10 9c-8 8-20 5-25-5a35 35 0 0 1-4-15 102 102 0 0 1 1-24 248 248 0 0 1 14-47 13 13 0 0 0 1-3h-1c-32 23-64 45-94 70a215 215 0 0 0-56 69 7 7 0 0 1-3 4h-14v-5c3-12 9-22 16-33 10-16 23-30 38-42 22-21 47-38 72-56l38-26 16-13a14 14 0 0 0 5-6l16-31c11-19 21-39 34-57a16 16 0 0 1 6-5 8 8 0 0 1 9 2 9 9 0 0 1 1 10 1243 1243 0 0 0-46 83c-11 21-20 43-28 66-4 12-7 25-7 38 0 4-1 7 1 11l13-10 1-5c-3-21 2-42 9-62 6-19 15-36 26-53a332 332 0 0 1 29-41l29-34 10-12a9 9 0 0 1 4-2c4-2 7-5 9-9l12-18c2-3 2-4 0-7a51 51 0 0 1-6-7 6 6 0 0 0-4-3l-16-4c-9-2-17-5-25-9l-16-7c-2-2-5-2-7-1-4 2-9 2-13-1a8 8 0 0 0-2-1c-11-3-17-10-19-20-2-6-6-9-11-12-1-1-2 0-3 1l-11 14c-6 7-12 15-19 20-5 4-9 7-15 9a41 41 0 0 1-33-2 141 141 0 0 1-23-15c-4-3-4-3-8 1l-3 4-1 2c-14 12-29 23-44 33l-14 8c-23 13-45 24-70 32a143 143 0 0 1-43 8 192 192 0 0 1-43-4h-4c-1 3 0 5 1 8l2 1c19 5 39 7 58 5a278 278 0 0 0 68-15c18-6 35-14 52-22 16-9 32-17 47-28l11-8c3-2 6-2 10-2a5 5 0 0 1 4 5 12 12 0 0 1-2 10l-5 5a137 137 0 0 1-27 19l-38 20a27 27 0 0 0-9 7c-5 7-13 12-20 17a697 697 0 0 1-108 61l-25 12-31 14a400 400 0 0 1-57 18 141 141 0 0 1-30 4 3 3 0 0 0-2 1v11c5 1 10 0 14-1a1218 1218 0 0 0 217-72l31-14a14 14 0 0 1 10-1c3 1 4 2 4 6s-2 8-6 11c-10 7-20 11-31 17l-40 17a1055 1055 0 0 1-109 39l-47 13c-5 1-5 1-5 6l-1 16a123 123 0 0 1 14-3c16-1 32-2 48-5a325 325 0 0 0 139-58c6-4 11-8 18-10 3-1 8 0 11 3 1 2 2 6 0 9a50 50 0 0 1-6 8c-10 11-22 19-34 28-21 16-43 31-64 49-13 12-26 26-37 40l-8 10-3 4 13 4 3-2a512 512 0 0 1 65-60c25-19 51-36 78-53l56-34c4-3 8-3 13-3a7 7 0 0 1 5 10 19 19 0 0 1-8 10c-7 4-12 10-18 15a1040 1040 0 0 0-83 91 286 286 0 0 0-20 34 9 9 0 0 1-3 4h-17c-1-2 0-3 1-5a223 223 0 0 1 18-34 367 367 0 0 1 40-50l6-7a17 17 0 0 1 1-1c-23 15-46 30-68 47-17 13-33 26-48 41a81 81 0 0 1-10 9h-37c-9-1-11-5-9-13a21 21 0 0 1 3-7c9-15 20-29 31-42a320 320 0 0 1 30-29 9 9 0 0 1 3-2 308 308 0 0 1-33 9l-34 6c-11 2-23 2-34 3l-7-1h-24a4 4 0 0 0-3 1l2 5c5 17 12 33 16 51a148 148 0 0 1 2 15v4h-16c-2-1-2-2-2-4l-8-32-14-41-3-9c-2-3-4-4-7-2-12 7-26 11-40 15-13 3-26 7-39 8-8 1-15-2-19-10l-9-20-15-29-4-5-6 7a368 368 0 0 1-29 33 79 79 0 0 0-10 13c-5 7-8 15-10 23a271 271 0 0 0-6 44c0 3 0 6-2 9h-16c-2-3-1-6-1-9 1-16 3-31 6-46 4-15 9-29 19-40l15-16 13-15a3 3 0 0 0 1-2c-3-2-7-2-10-3a181 181 0 0 0-23-3c-7 0-13-3-16-11-4-6-6-13-8-20-4-10-7-19-9-29l-1-4-7 5c-14 12-30 23-45 34-10 7-20 12-31 13l-33 6H0v-18c2-2 4-2 6-2l34-6a23 23 0 0 0 9-4c16-10 32-22 47-34l7-6 9-6-3-3-37-20-14-10a27 27 0 0 1-5-4c-5-5-6-9-2-16 8-14 13-29 22-42a40 40 0 0 0 6-12 10 10 0 0 0-1-9 154 154 0 0 1-10-17c-3-4-6-8-11-8-14-4-28-8-43-10a86 86 0 0 0-9-1c-2 0-4 0-5-2Z"/><path fill="#f1d7cf" d="M571 0h509v1080H618v-3a164 164 0 0 1 23-33c16-17 34-32 53-46l24-18c2-1 3-3 5-3 2 1 1 3 1 4-3 12-2 23-2 35 1 14 9 25 22 32 0 1 0 0 0 0 9 2 19 4 27-2a47 47 0 0 0 6-5 35 35 0 0 1 11-7c7-4 10-10 12-18 2-6 2-12 2-19a163 163 0 0 1 13-57 265 265 0 0 1 20-38 322 322 0 0 1 33-44l26-28a372 372 0 0 0 41-54 12 12 0 0 1 5-4l33-17a126 126 0 0 0 20-13l11-7c4-4 8-8 10-13 2-6 6-10 12-12 11-3 17-11 21-21a28 28 0 0 0 2-7c2-12 1-24-2-36l-1-20c0-13 4-25 6-38a162 162 0 0 0 3-30v-32c0-17-2-33-3-50a1191 1191 0 0 0-19-129c-2-9-7-17-11-26l-13-28-14-30-18-37a231 231 0 0 0-29-42c-2-3-4-6-4-11 2-14-4-25-13-36a126 126 0 0 0-10-9c-7-6-14-9-23-9-5 1-9-1-13-5-17-16-38-29-58-42a537 537 0 0 0-48-26 361 361 0 0 0-35-14c-11-4-23-9-35-12a136 136 0 0 0-25-4l-31-3-77-11c-1 0-4 1-5-2ZM0 299V0h435c0 2-2 2-3 2-16 3-32 7-48 13-14 4-27 11-39 19a17 17 0 0 0-2 3l-15 11c-6 4-11 9-13 16-7 17-9 34-11 52-1 4-1 5-5 5-14 2-24 15-24 27l-1 22a74 74 0 0 0 2 17c1 5 0 6-5 8l-28 8c-12 4-22 11-27 22a22 22 0 0 0-3 8c-1 9-2 17 1 26 1 6 1 7-5 8-9 1-17-1-25-1h-3l-66-2c-23 1-45 3-66 10a142 142 0 0 0-40 19l-5 4c-1 1-2 3-4 2Z"/><path fill="#9d7d72" d="m560 1080 17-31c6-10 14-19 21-28a196 196 0 0 1 14-16l41-43 25-23 10-8 4-6c1-4-2-7-6-8-6 0-10 2-15 5l-39 23a2100 2100 0 0 0-58 38l-28 20-17 12-21 17-18 17-17 20-16-4 7-9 23-27a276 276 0 0 1 21-21 441 441 0 0 1 63-48c12-9 23-17 33-28a48 48 0 0 0 6-8c2-2 2-5 0-7s-7-3-10-3c-14 6-24 17-37 24-11 6-21 13-33 18a277 277 0 0 1-38 15 485 485 0 0 1-50 11c-14 3-29 3-43 5l-17 3a6 6 0 0 1-2 0l1-21c0-2 1-2 2-3l21-4 50-16 54-18 30-12c23-9 45-19 66-30a118 118 0 0 0 11-7c3-1 5-9 4-11a6 6 0 0 0-4-3c-4-1-8 0-11 2l-24 11-47 21a1583 1583 0 0 1-97 34l-62 17-24 3-7 1-1-13 3-2a359 359 0 0 0 94-25l31-14 19-9 14-3 30-8 14-5a622 622 0 0 0 75-29 782 782 0 0 0 78-44c3-2 6-3 9 0 1 2 3 2 5 1a25 25 0 0 0 4-1c3-2 6-2 9 0 2 2 5 2 7 0a21 21 0 0 0 8-6 29 29 0 0 1 4-5c3-3 5-7 5-11l2-4c4-4 4-6 1-10-2-2-1-3 0-4l6-6 26-24c1-1 3-2 3-4l-11-9h-3a19 19 0 0 0-5 4l-19 17c-8 7-17 10-27 12-6 1-13 2-19-1l-13-5-12-5a54 54 0 0 1-13-7c-2-1-3-2-3-4l6-9 6 4 23 14c14 7 27 6 41-3 11-7 19-17 27-28l11-13c5 4 11 7 13 15 2 9 8 17 18 19a7 7 0 0 1 3 1c4 3 7 3 11 1 4-1 7-1 10 2a33 33 0 0 0 8 4c12 4 24 10 37 12a68 68 0 0 1 10 3 11 11 0 0 1 5 3 110 110 0 0 1 7 9l1 4-18 26-4 3-7 5-18 21-18 22a271 271 0 0 0-29 39c-7 11-13 23-18 34a141 141 0 0 0-10 23l-8 34v28l-1 3-16 13c-1-12 0-23 2-34 4-18 11-36 18-53l23-47 27-49 12-19c1-2 0-7-2-8-2-2-6-3-8-1-3 2-6 5-8 9l-19 30-23 41a63 63 0 0 0-3 7 29 29 0 0 1-12 15l-15 11-30 21-35 25-41 33a211 211 0 0 0-34 37c-10 13-18 27-21 43Z"/><path fill="#fefefe" d="m0 299 18-13a172 172 0 0 1 24-11 169 169 0 0 1 53-10l50-2 37 2 22 1 10-1-1-5c-3-8-2-17-1-26 1-11 8-19 17-26 6-4 13-6 20-8l24-7c2-1 3-2 2-3-3-11-3-22-2-32 1-7 0-15 4-22 4-9 12-15 22-16 3 0 3-1 3-3 2-17 5-34 11-51 2-6 5-12 11-16 2-3 6-5 9-7a16 16 0 0 0 3-2c12-12 26-20 42-25l33-11 23-4a9 9 0 0 0 1-1h136l12 2 31 4 37 5 38 4a132 132 0 0 1 35 8l42 16a388 388 0 0 1 56 29c14 9 28 17 41 27l26 22a7 7 0 0 0 5 1c8 0 15 0 22 5a72 72 0 0 1 6 5c10 8 19 18 22 30a43 43 0 0 1 1 16c0 4 2 6 4 9a198 198 0 0 1 26 37l17 34 19 41 14 29c6 14 12 28 15 43l6 37 3 27a1500 1500 0 0 1 7 120c0 17-2 34-6 52l-2 20c-2 13 1 24 3 36 1 14 1 29-9 41a37 37 0 0 1-18 12c-4 1-7 4-8 9a32 32 0 0 1-12 15l-27 18c-11 7-24 12-35 18a16 16 0 0 0-6 5c-11 14-20 29-32 42-10 13-22 25-33 37l-16 19a279 279 0 0 0-31 48c-9 19-17 38-19 58l-2 26c-1 9-3 19-10 25a10 10 0 0 1-4 3c-5 1-8 4-12 8-5 5-11 9-19 8a26 26 0 0 0-5 0c-8 1-14-3-19-8-10-9-13-21-13-34 0-10-1-21 2-31l-30 22-27 21c-12 11-24 22-33 36l-15 23h-19c6-14 14-27 23-38a291 291 0 0 1 25-26c7-8 16-14 24-21l31-24 31-22 22-15-1 4c-7 17-13 34-15 53-2 10-2 21 1 31 2 6 6 10 11 12a13 13 0 0 0 14-4l12-10 2-1c3 1 4-1 4-3a42 42 0 0 0 2-9c1-20 3-41 10-60a274 274 0 0 1 25-52 387 387 0 0 1 33-44l9-10 16-18 16-18 21-29 9-13a13 13 0 0 1 6-5l45-23a122 122 0 0 0 20-14 20 20 0 0 0 6-10c2-9 9-13 17-15 8-3 14-8 15-16v-20l-3-24a104 104 0 0 1 0-19l4-24 4-28 1-40-2-40-2-24-4-30-2-25a506 506 0 0 0-15-64l-4-8-26-55-15-33a263 263 0 0 0-26-43l-13-15-5-6c5-8 4-15 0-23-4-10-11-17-20-22a17 17 0 0 0-19 1l-23-21a451 451 0 0 0-160-82l-23-3-33-4-24-3-21-3-19-2-19-3a148 148 0 0 0-16-1l-83-1c-11 0-22 2-33 4-15 2-30 7-45 12a118 118 0 0 0-33 17 23 23 0 0 0-3 3c-4 4-8 8-13 9-4 2-7 6-8 10a158 158 0 0 0-9 37l-4 27c-1 2-2 3-4 3l-13 1c-4 1-9 5-9 10l-1 21a96 96 0 0 0 6 31l4 5-13 3-34 9a78 78 0 0 0-15 7c-7 3-9 10-10 18-1 14 6 25 14 36l-16 3-29 2-35-2h-15l-18-1-43 3c-12 1-24 4-36 8a125 125 0 0 0-33 16c-7 6-12 13-13 22l-2 12a23 23 0 0 0 1 10c1 4 7 5 12 3a804 804 0 0 1 71-21l21-3c16-2 32-2 48-2l32 2-9 7-67 50a585 585 0 0 0-64 55 277 277 0 0 0-19 20c-10 10-19 22-28 33v-29c4-7 9-12 14-17l32-32 31-27 55-41a5 5 0 0 0 1-2 61 61 0 0 0-10 0c-33 2-66 10-97 23-7 3-14 4-21 3l-5-2Z"/><path fill="#f6dee8" d="m122 886 8 25 9 25c3 6 8 8 14 9l24 3-2 4a199 199 0 0 0-38 47 41 41 0 0 0-4 9c-3 9-6 16-7 25a14 14 0 0 0 1 9 7 7 0 0 1 0 5 193 193 0 0 0-5 27c0 2 0 4-2 6H78c-6-2-9-6-13-9-8-6-14-14-20-21a8 8 0 0 1-2-4c-2-9-8-14-18-12a6 6 0 0 1-6-3c-6-8-11-16-18-23l-1-2v-52l5-1 24-1c14-2 27-8 37-19 8-9 18-16 28-24 9-6 17-13 25-21 0-1 1-2 3-2Z"/><path fill="#e8a884" d="m350 1003 6 16 12 39 4 19 1 3H151c1-11 1-23 3-34a280 280 0 0 1 6-28c3-10 8-18 15-25l14-16 18-20 4 5a367 367 0 0 1 13 39 14 14 0 0 1 1 5c-1 4 1 7 5 9a21 21 0 0 0 5 2c13 4 26 6 39 5l31-5a73 73 0 0 0 27-14c3-3 6-3 9-2s6 0 9 2ZM103 871l-15 13-35 25c-6 5-14 6-21 8l-32 5V710l31 5 26 7c-1 7 3 12 5 18a73 73 0 0 1 3 10c1 4 1 7-1 10a13 13 0 0 0-1 7 29 29 0 0 1-5 15l-17 32a65 65 0 0 0-4 12 9 9 0 0 0 5 11c19 8 35 20 53 28l6 3c1 0 3 1 2 3Z"/><path fill="#fefefe" d="m0 576 8-10 30-39c12-16 27-30 41-44l24-21-7 13-17 35c-5 10-10 20-13 31-7 19-14 38-19 57a218 218 0 0 0-7 31c-2 12-2 23 1 34 2 5 4 10 8 14l5 5c4 2 7 1 9-3l6-23 11-28a41 41 0 0 1 4-8l-7 25-5 25-3 26-7 3c-2 1-3 5-5 7-18-6-37-11-57-11v-17c1-2 3-1 4-1 7-1 13 0 20 1h3l-1-2c-3-7-4-14-5-21-2-17 1-33 4-49 4-19 10-37 17-54l-8 10-18 24c-3 3-6 6-10 7H0Z"/><path fill="#f1d7cf" d="M0 371c9 3 17 1 25-2l26-9a278 278 0 0 1 28-8l32-5 22-1a5 5 0 0 1 3 0l-8 6-38 29-35 29-7 7-20 19-26 28a14 14 0 0 1-2 2Z"/><path fill="#fefefe" d="m389 1080-4-21-9-31-9-23a6 6 0 0 1 0-2h47l26-3c15-1 30-5 45-8l23-7-15 13-18 18a213 213 0 0 0-15 17l-20 28a20 20 0 0 0-3 8c0 6 2 9 8 10a8 8 0 0 1 1 1h-25a6 6 0 0 1-2-4c-1-10 1-20 7-28l20-27a8 8 0 0 0 2-2 486 486 0 0 1-54 3l1 5c4 12 8 24 10 37l2 12a4 4 0 0 1-1 4ZM483 1080a16 16 0 0 1 2-3l14-13 29-25c25-21 52-38 79-56a17 17 0 0 1 5-2l-9 10a348 348 0 0 0-40 52c-8 12-15 24-20 37h-16c-2-3-1-5-1-8a78 78 0 0 1 6-12l-21 18-3 2Z"/><path fill="#806b65" d="m0 1006 14 16 7 10a4 4 0 0 0 3 1 65 65 0 0 0 7 0c6-1 13 6 13 11 0 4 3 5 4 8 8 11 19 20 30 28H53l-5-4c1 2 0 3-1 4H31l-1-3-6 3H8c-2-3 1-5 2-7 1-3 0-5-2-6l-4-1-4-1v-14a6 6 0 0 0 0-7Z"/><path fill="#f1d7cf" d="M0 593a14 14 0 0 0 13-6l20-25 11-15-4 14a328 328 0 0 0-17 64 121 121 0 0 0 0 37c1 6 4 11 6 17v1l-29-2Z"/><path fill="#e7cbd7" d="m120 1080 6-33v-3c-3-6-2-12 0-18a253 253 0 0 1 8-24c4-10 11-18 17-26l17-20 9-8 14 3-19 21c-8 8-17 16-22 27a154 154 0 0 0-9 26c-3 10-4 19-5 29l-2 20v6Z"/><path fill="#f1d7cf" d="M406 1080a125 125 0 0 0-6-32l-8-27 58-3-9 12-17 25c-5 8-4 16-3 25Z"/><path fill="#e7cbd7" d="M122 886c-8 9-17 16-26 24-10 7-19 14-28 23a70 70 0 0 1-45 21H0v-14l30-6 20-4c7-3 14-8 21-13l27-19 19-16 4-2 1 6Z"/><path fill="#bda197" d="m0 527 25-35a219 219 0 0 1 14-16l19-20 40-35 56-43a5 5 0 0 1 3-1l-17 23-26 18a328 328 0 0 0-45 39 555 555 0 0 0-47 56L3 537c-1 1-1 2-3 2Z"/><path fill="#a58980" d="m0 539 18-22c10-13 19-26 30-38s22-25 34-36l35-28 19-14a21 21 0 0 1 4-1c-6 9-11 19-20 27l-28 23-44 41a392 392 0 0 0-44 53l-4 5Z"/><path fill="#f2d8d0" d="m508 1080 21-19a28 28 0 0 1 5-3c-3 7-8 14-7 22Z"/><path fill="#f6dee8" d="M0 1065a11 11 0 0 1 3 0l6 1c2 2 4 4 2 7-2 2-2 5-3 7H0Z"/><path fill="#e6b9c6" d="M24 1080c0-5 5-3 8-6l-1 6Z"/><path fill="#e5b9c5" d="m47 1080 1-5 5 5Z"/><path fill="#e3b9c4" d="M0 1044h2a36 36 0 0 1 0 5l-2 2Z"/><path fill="#e8a884" d="M754 644c-13-15-24-31-35-47a466 466 0 0 1-31-56l-29-60c-11-21-21-43-35-62l-23-29c-1-2-2-4-1-6 2-4 1-9 1-14l-2-13v-11c0-5 2-8 7-10l21-8c9-3 15-9 20-16 7-10 11-21 16-33 4-9 8-19 15-26a53 53 0 0 1 15-10l31-12 49-20 65-27 36-11a39 39 0 0 1 6-1 7 7 0 0 1 7 3c5 8 12 14 21 15 4 1 6 4 8 7l23 31a276 276 0 0 1 24 47c2 8 1 16 0 25l-1 25c-2 28-4 55-13 82-7 22-19 42-36 57-8 8-16 14-27 17-14 5-27 2-39-7a71 71 0 0 1-7-6 19 19 0 0 0-23-2c-5 3-10 7-12 12a19 19 0 0 0-2 11 260 260 0 0 1 4 38v13c0 4 0 4-4 4-10 1-18-4-25-11l-26-24-8-8c-3-3-7-4-12-5-2 2-1 4-1 6a36 36 0 0 0 2 8l16 43c10 20 15 42 22 62 3 10 7 19 12 28a53 53 0 0 0 8 11l10 11 2 3c-1 2-3 2-4 2a11 11 0 0 1-4-2l-17-10c-8-5-16-8-22-13a6 6 0 0 0-2-1Z"/><path fill="#e8a884" d="m861 137 14 13 1 3a3 3 0 0 1-2 2l-22 6c-20 5-39 14-57 22l-72 29c-13 5-27 9-39 16-14 7-24 17-31 31-5 9-8 18-12 28-4 8-8 16-16 22-4 3-10 4-14 6l-20 10c-5 3-7 8-8 14-2 8-2 16-1 25a38 38 0 0 1 0 4l-5-5-20-20a256 256 0 0 0-20-17 770 770 0 0 0-76-47l-28-13-40-16-41-20c-10-5-18-11-26-18-5-2-8-6-12-9-2-1-2-2-2-4l-2-11-3-20 2-12 2-1c4 3 6 6 8 10 7 8 16 14 24 20a262 262 0 0 0 53 27 61 61 0 0 0 16 4 15 15 0 0 0 6-1c3 0 3-2 2-4a59 59 0 0 0-11-13c-13-12-23-27-32-43-8-13-15-27-21-41-5-10-8-20-8-31l2-9 23-16a99 99 0 0 1 30-12l34-7a588 588 0 0 0 43 2l25 2c2 0 4 0 5 2 1 4 5 5 8 7a107 107 0 0 0 16 5 29 29 0 0 1 8 4c19 11 38 24 55 37a9 9 0 0 1 4 7c1 3 2 5 5 7a65 65 0 0 0 8 6 9 9 0 0 1 4 3c1 2 0 3-2 3a10 10 0 0 1-3 0l-20-4c-5-1-8 1-10 5s1 7 6 8a100 100 0 0 0 14 4c3 0 6 2 9 5a7 7 0 0 0 2 2 17 17 0 0 1 8 8 313 313 0 0 1 54 24c4 2 9 1 11-2a9 9 0 0 0-1-11c-2-3-4-5-4-8s-2-5-5-6a108 108 0 0 0-17-8 10 10 0 0 1-6-5c-1-2-4-3-6-4a84 84 0 0 1-9-3c-2-1-4-2-3-4 1-7-2-13-7-17-2-2-3-4-2-6 0-4-1-6-4-8a57 57 0 0 0-7-6c-13-7-23-17-33-27a12 12 0 0 1-3-4c0-1-2-2-1-3l4-1 27 5 68 14 58 13a300 300 0 0 1 74 32c8 5 16 9 22 15a8 8 0 0 0 5 2 17 17 0 0 1 8 3c5 3 9 4 13 0a2 2 0 0 1 3 0Z"/><path fill="#fef5e2" d="m474 795-22-3-22-3-6-1 2 17c1 6 2 12 5 18 1 3 5 6 7 8 2 6 7 9 13 11a76 76 0 0 0 16 2l29 1a274 274 0 0 0 34-2l7-2 5 1-15 9-14 8a10 10 0 0 1-4 1l-37-1c-14 0-28-4-42-10l-32-12-48-23-31-19a157 157 0 0 1-33-25 162 162 0 0 1-27-37l-25-47a491 491 0 0 1-27-60l-13-39c-3-7-3-15-4-22l-3-25 3-28c1-2 3-1 5-1l2 2c-1 7 4 14 2 22l-1 22c1 10 1 19 4 28s7 15 15 20l7 4c5 4 10 2 12-4a4 4 0 0 1 1-3 33 33 0 0 0 4-1c3-1 3-3 2-6-2-5 0-11-1-17h2c12 4 23 2 34-4 7-4 11-11 13-18 3-7 4-15 1-23a75 75 0 0 0-17-30l-8-9c-2-2-3-3-5-3l-2-2 6-16 21-44a347 347 0 0 1 33-51l7-10a3 3 0 0 1 3 1 98 98 0 0 0 13 9l1 1-5 13a6 6 0 0 1-2 1c-6 2-7 7-4 12a36 36 0 0 0 5 7c1 1 3 2 2 4l-23 2c-15 3-23 12-27 26a80 80 0 0 0-2 14l2 7c2 2 1 5 1 7a48 48 0 0 0-2 17 32 32 0 0 0 8 17l4 7c7 5 11 13 18 18 3 3 7 5 11 6 8 1 16 0 24-2 6-2 12-7 17-10s10-9 14-13l6-7c1-1 2-3 4-3l6 12 4 4 2-7c1-22-3-42-12-61-2-6-7-11-10-16 2-1 6-1 4-6l2-3 6-7a4 4 0 0 1 2 1l26 22a7 7 0 0 1 1 2l-4 25-1 4h-6a9 9 0 0 0-2 6l4 19c2 10 8 18 14 27 1 3 5 3 7 6l1 5c-4 8-2 14 3 20 6 6 14 7 21 5 6-2 11-4 15-8a3 3 0 0 1 2-1c4-1 8-6 9-11l2-21h1a115 115 0 0 1 13 18c1 2 0 4-1 6-2 7-5 13-6 21l-1 6c2 5 1 11 1 16-1 9 3 15 10 20 1 1 4 2 4 5l-5 1-6 1c0 4 5 4 5 7s-2 4-3 6a46 46 0 0 0-6 9l-9 14c-7 14-9 28-2 42l12 16a7 7 0 0 0 4 2l7 9c4 7 11 11 19 11 8 1 15-1 22-2 13 5 30 1 37-10 7-10 12-21 13-34 0-7-1-13-3-19v-5c2-1 3 1 4 2l14 15 25 25a9 9 0 0 1 1 1 40 40 0 0 0 12 13c-5 5-10 11-16 15l-28 20a319 319 0 0 1-50 27l-10 4a6 6 0 0 1-5-2 114 114 0 0 0-17-15c-10-8-22-14-36-14-8 0-14 4-19 11-4 6-3 13-2 19a22 22 0 0 0 4 11c1 1 2 3 0 4Z"/><path fill="#d98d75" d="m754 644 4 1 22 13 16 9 6 2v-1l-10-11c-8-8-13-17-17-27l-12-37-13-36-10-26-10-28a11 11 0 0 1 0-3c0-6 0-5 5-4 7 0 11 5 16 9l21 21 18 15a11 11 0 0 0 6 2h10l-1-26c0-10-2-19-3-28s3-15 9-20 13-8 21-7a23 23 0 0 1 9 6c5 4 10 9 17 11a42 42 0 0 0 31 0 82 82 0 0 0 23-15c9-8 17-18 23-28 10-16 16-34 19-52l5-43 3-39 1-27 9 20 8 16 19 41 3 9 5 24 4 18 3 30 3 23 2 30 1 10 1 16v37c1 16-2 31-5 47-2 8-2 17-3 25-2 14 1 28 3 42a62 62 0 0 1 0 12 5 5 0 0 1-3 4l-9 3a33 33 0 0 0-14 11c-3 3-4 8-5 11a11 11 0 0 1-3 5l-19 13c-7 5-15 8-23 12-2 1-3 1-3-1l-7-12-10-19c-1-2-2-5-4-6-5-3-11-5-17-4l-10 2c-2 0-3 0-4-2l-4-13c-1-4-10-8-14-7l-29 7-41 7-6-2-18-19-19-21Z"/><path fill="#faeed7" d="m517 500-26-32c-16-17-32-35-49-51a382 382 0 0 0-32-28c-16-14-33-26-50-39l-47-34a673 673 0 0 1-50-43c-6-6-12-13-15-22l-1-10 3-3 22-8 38-9a4 4 0 0 1 3 1c12 13 26 22 42 29q40 19 82 35a272 272 0 0 1 48 25l40 27a212 212 0 0 1 19 17l21 20 8 9c11 14 19 29 28 44 10 16 21 32 29 49a249 249 0 0 1 14 33l23 69c5 14 8 28 7 43 0 9-2 18-7 26-3 4-4 5-8 2l-44-31-23-24c-12-13-21-27-30-41-8-13-18-24-27-35l-18-19Z"/><path fill="#fedcb8" d="m188 933-32-4a6 6 0 0 1-3-3l-7-19-8-26-1-5c6 3 12-1 17-3l26-14c6-3 9-8 8-15 0-10 3-21 5-31l3-19a5 5 0 0 1 2-2l12-9c11-11 22-22 30-35l4-7 19 28a200 200 0 0 0 23 23c17 15 38 27 58 38l16 9c-16 10-28 25-42 38l-17 18a6 6 0 0 1-4 1l-20-2-19-2-26-2c-5 0-9 2-11 7l-10 16-10 18c-3 2-7 2-11 2h-2Z"/><path fill="#a58881" d="M135 612c-4-6-8-6-12 0-7 11-10 22-14 34l-14 47a46 46 0 0 0-1 7c0 2-1 3-3 2a19 19 0 0 0-2 0c-3 0-4-2-4-5l7-40 20-71 17-50 12-33c2-7 6-14 10-22l13-27a6 6 0 0 0-2-8 5 5 0 0 0-7 2l-27 41a30 30 0 0 1-2 3c-2-2 0-3 0-5l21-36c11-16 21-33 33-49 2-3 4-4 7-4a9 9 0 0 0 6-3 5 5 0 0 1 6-1 13 13 0 0 0 8 0c1-1 3-1 4 1 1 1 0 3-1 4l-4 9c0 3 0 5 2 6s5 1 7-1a32 32 0 0 0 6-6c11-14 21-29 31-45 2-4 2-7 0-9s-6-1-9 2c-5 4-8 9-12 14a21 21 0 0 1-2 3h-3a3 3 0 0 1 0-2 11 11 0 0 1 1-3c1-3 2-6 1-9-1-2 0-4 1-6l7-9c2-4 4-7 2-11l2-5 20-22c2-1 3-3 5-3l19 15 20 16a2 2 0 0 1 0 2l-7 7a2 2 0 0 1-2 1c-4-3-5-3-10 0-7 5-11 11-16 18a375 375 0 0 0-39 64 15 15 0 0 0-1 2c-1 5-5 8-8 12a160 160 0 0 0-17 16 200 200 0 0 0-18 23c-8 14-14 28-15 44l-1 20c-6 6-8 14-12 20l-16 34-4 12c0 1 0 3-3 4Z"/><path fill="#edd0ae" d="M861 137c-7 5-9 5-17 1-2-2-5-2-7-3a24 24 0 0 1-5-2l-23-16-25-13c-16-8-33-14-50-18l-51-12-64-13-37-7a28 28 0 0 0-3 0l7 8 17 16 18 12c3 3 6 5 7 9v2c-2 4 1 6 4 8a17 17 0 0 1 5 16 4 4 0 0 0 2 3 43 43 0 0 0 7 3c4 1 8 2 10 6l3 3 19 8a9 9 0 0 1 6 9 3 3 0 0 0 2 3c3 3 5 6 4 10 0 5-3 8-8 8a14 14 0 0 1-6-1l-23-11-26-10c-4-1-6-3-8-6 0-2-1-2-2-3l-7-5-5-4-17-4c-5-1-7-5-6-10a8 8 0 0 1 10-6l23 5a18 18 0 0 0 2 0l1-1-4-3-9-6c-3-2-5-5-5-10a5 5 0 0 0-2-3l-58-39c-4-3-8-3-12-4a122 122 0 0 1-14-6l-6-6-2-1-17-1-45-3-21 3-20 3c9-3 17-6 26-7a280 280 0 0 1 35-4l50-1h26l30 2 22 3 24 3 25 3 28 4a117 117 0 0 0 11 0c12 0 24 3 35 8l39 15a491 491 0 0 1 78 43c10 6 19 14 28 21a5 5 0 0 1 1 1Z"/><path fill="#eecfbe" d="M517 500a52 52 0 0 1 6 4c15 15 28 32 40 49l14 22 17 21a148 148 0 0 0 12 13 197 197 0 0 0 29 23l25 17c2 2 4 2 6-1a43 43 0 0 0 6-20 155 155 0 0 0 0-23c-2-17-8-33-13-49l-20-57c-8-22-20-41-33-61l-33-53a5 5 0 0 1 0-1l11 12 18 23a220 220 0 0 1 22 34l29 55 26 55 16 27a601 601 0 0 0 45 65l25 28-21 25c-5 6-11 11-19 15s-14 2-21-2a154 154 0 0 1-30-21l-20-19-22-26-30-40-27-36-32-44-22-30-4-5Z"/><path fill="#a58881" d="M664 730c7 6 15 10 24 13l15 6c6 3 11 3 17 2 8-1 15-2 22-6l13-10 15-14 7-5 14 13-38 36c4 1 5 3 4 6l-3 6a25 25 0 0 0-2 4c-1 2-1 5-3 7l-11 13c-6 5-8 5-15 0-6 2-12 7-18-1l-16 11-15 9-31 16-38 19q-20 9-41 16l-38 11-31 8c-2 1-4 3-6 1l53-28c21-12 42-24 61-38 6-4 10-9 15-14a22 22 0 0 1 5-3l41-22 2 2c2 3 4 4 8 2a12 12 0 0 1 6-1 7 7 0 0 0 5-2l4-2 3 3h3a3 3 0 0 0 2-4c0-1-1-2-3-2-4-1-4-1-1-5a17 17 0 0 0 1-2c2-3 1-5-2-6l-2-2 6-6a7 7 0 0 0 1-4c0-3 1-6-2-7s-7-2-10 1l-12 8c-5-5-8-5-14-1l-6 3c-2 1-3 1-4-1-3-6-3-6 2-10l7-6c4-4 6-8 4-13Z"/><path fill="#bda196" d="m265 302-17 18a244 244 0 0 0-9 11c3 4 0 8-2 12l-8 11v2c2 5 0 8-2 12a18 18 0 0 0-1 4h1l5-6 11-13c4-4 10-3 12 2a10 10 0 0 1-2 7l-20 31-15 20a8 8 0 0 1-4 2h-7l-2-6 4-11a23 23 0 0 0 1-3h-12a4 4 0 0 0-3 1c-3 2-5 3-9 3a6 6 0 0 0-4 2l-25 37-26 44-5 10-31 57-21 49-18 45a90 90 0 0 0-2 9 694 694 0 0 1 112-252c27-38 59-72 93-104Z"/><path fill="#faeed7" d="m220 932 14-22 4-2 27 3 20 2 11 1a61 61 0 0 0 11-1c4-1 8-3 13-3 6-2 9-7 11-13l1-9 3-5 18 38c-6 1-12 3-18 1-5-2-11 2-11 7l1 9 2 17c0 4 1 9 6 11a6 6 0 0 0 3 1l9 2a24 24 0 0 0 7 0h12v13l-12-7c-3-2-7-4-11-4a22 22 0 0 0-7 3c-13 8-26 12-40 16l-27 6a64 64 0 0 1-9 2l-2-2-12-27c-7-14-12-26-24-37ZM88 829l-19-11 9-21 12-20c4-7 8-15 8-25 0-4-2-9-4-13l-12-20v-1l32 8-5 41v18c0 4 0 8 2 11 6 6 11 12 19 15a7 7 0 0 1 1 0c4 3 9 2 10-3l9-33 8-32 33 19c-9 9-10 21-13 32l-6 38-1 11a3 3 0 0 1-1 2l-27 14a5 5 0 0 1-4-1l-46-26-3-2c1-2 2-2 4-1l10-2c9-2 13-9 11-18-1-8-6-14-13-17-12-4-23 4-22 17a20 20 0 0 0 5 12c2 2 4 4 3 8Z"/><path fill="#d98d76" d="m350 74 1 2c-3 11-1 22 4 32l21 42 20 31 8 10 18 21c1 2 1 3-1 3-3 1-6 3-9 2-8-2-16-3-23-6a256 256 0 0 1-46-25c-12-8-22-17-31-29a15 15 0 0 1-1-2l9-1c10-3 13-10 15-19l7-42 5-17 3-2Z"/><path fill="#9d7d72" d="m478 877-51 23c-10 5-21 8-32 12l-20 5c-5 2-5 1-7-3l-1-3 25-13c3-2 5-4 5-7a7 7 0 0 0-6-7 60 60 0 0 0-7 0l-28-1a5 5 0 0 1-3-3 43 43 0 0 1-4-7 4 4 0 0 1 0-3 123 123 0 0 1 26-21c2-1 4-2 7-1l30 13c15 5 30 11 46 14l19 1 1 1Z"/><path fill="#fefefe" d="m395 502-14 15a98 98 0 0 1-22 17c-7 4-14 3-21 4s-13-1-18-4c-4-2-6-6-9-9l-10-12c-3-4-7-7-9-12-3-7-5-14-3-22l1-14c4-1 5-3 7-5l10-14c4-4 8-6 12-8a58 58 0 0 1 25-5c11 0 20 5 28 13a69 69 0 0 0-27 13 82 82 0 0 0-31 45c-2 8-2 16 3 24 4 4 8 7 14 8 11 2 22-2 32-7a73 73 0 0 0 20-17 28 28 0 0 1-5-1c-6-2-8-8-5-14a45 45 0 0 1 7-10c3-3 7-3 11-2s5 5 5 9l-1 8Z"/><path fill="#a58981" d="m314 340 11 8-11 12a283 283 0 0 0-32 45l-22 41-21 54a204 204 0 0 0-11 45c-2 10-3 20-1 30l-1 1-10-11-1-3 3-25 6-38a277 277 0 0 1 18-57l4-10a502 502 0 0 1 65-89l3-3Z"/><path fill="#9d7d72" d="m213 754-9-4c-2-1-3-2-3-5 2-7 2-14 3-22l-3-9c-2-5-10-4-12 0l-12 20-8-4c-6-3-6-3-3-10l6-17 18-45 6-14 9 22 16 31 12 23a4 4 0 0 1 0 3c-4 12-11 23-20 31Z"/><path fill="#a58981" d="M626 786c-15 8-30 16-46 21l-38 12-36 5a104 104 0 0 1-10 1c-16 0-32-2-47-5-4-1-5-3-6-6v-7l16 3 17 1a102 102 0 0 0 11 1 156 156 0 0 0 41-6c15-4 30-10 44-17l31-16a14 14 0 0 1 2-1l11-2a110 110 0 0 0 12-5 7 7 0 0 1 9 2c1 2 1 4-1 6l-4 2c-3 3-6 7-6 11ZM180 637l-4 11-22 53a490 490 0 0 0-19 65l-6 26c-4-3-5-4-4-9a10 10 0 0 0 0-2c-1-14 2-29 5-43l19-72 20-63c2-2 2 1 2 2l2 8 7 21a3 3 0 0 1 0 3Z"/><path fill="#d98e76" d="M103 871a43 43 0 0 0-3-3l-38-19-19-10c-5-2-8-9-7-14 4-13 11-24 17-36l8-17v-6l2-6a12 12 0 0 0 1-10l-7-18c-1-3-2-6 0-10 7 0 9 4 12 9l10 17c3 5 1 9-1 14l-11 19-6 13-8 14c-5 10-5 15 5 22 8 6 17 11 25 15l30 17 1 1Z"/><path fill="#d98e75" d="m350 1003-12-1a6 6 0 0 0-3 0 79 79 0 0 1-40 18c-11 2-22 4-33 3a155 155 0 0 1-20-3 75 75 0 0 1-13-4c-4-2-6-5-5-9a1494 1494 0 0 0-14-45l-3-5 6-9 7 10 21 45c3 6 7 10 14 11a35 35 0 0 0 12-1l50-13c7-2 15-6 22-10 3-1 6-1 7 2l4 11Z"/><path fill="#fedcb8" d="M653 716c-4-1-7-5-10-8l-11-13-19-20-13-14a19 19 0 0 0-3-2l-3-4a58 58 0 0 0-13-20 55 55 0 0 0-10-7 11 11 0 0 1-3-2 178 178 0 0 1-24-34 9 9 0 0 1-1-5l4-15 8 10 50 69 25 30 24 26a68 68 0 0 0 6 4Z"/><path fill="#9d7d72" d="m135 612 5-11 9-22a351 351 0 0 1 17-34l4-3c2 7-2 12-4 18l-9 24-9 30-11 35-11 34-6 24c-1 2-2 2-4 2l-5-2a2 2 0 0 1-1-2l5-21 9-30c3-10 7-19 9-29l2-13Z"/><path fill="#fedcb8" d="m512 611-8-7c-7-6-8-15-7-23a19 19 0 0 0 0-7c-2-7-1-13 2-20l5-14c1-2-1-5-3-8l-9-11a12 12 0 0 1-1-2l3-18 16 20 7 10c2 2 2 3 1 5a134 134 0 0 0-8 32l-2 12a136 136 0 0 0 3 18c1 1 2 3 4 3l5 1a4 4 0 0 1 2 2c3 6 9 7 14 3 3 1 2 3 2 5a5 5 0 0 1-2 4 6 6 0 0 1-4 0l-17-3c-1 0-3 0-3-2Z"/><path fill="#806b64" d="m88 829-6-10c-4-7-4-19 2-24a17 17 0 0 1 22-2c7 5 11 11 11 20a17 17 0 0 1-11 15c-5 2-11 2-16 2Z"/><path fill="#feebd9" d="M261 489v1c4-2 6 2 7 4 10 10 19 21 24 35 3 7 5 15 1 23-1 4-1 8-3 11a31 31 0 0 1-8 9l-11 7c-8 3-16 2-24 2l-5-3v-10a2 2 0 0 1 2 0c8 6 17 3 25 0s12-11 15-19c1-5 0-11-1-16-2-9-7-17-13-24a94 94 0 0 1-6-8c-2-3-5-3-6-5l3-7Z"/><path fill="#bda196" d="M626 786c-2-2-1-5 1-6a78 78 0 0 1 8-8 28 28 0 0 1 2-2c-2-5-6-6-11-3s-11 4-17 6l-4-1c8-5 16-9 23-15l34-26c3 2 3 6 1 9a150 150 0 0 1-11 11 59 59 0 0 1-5 3l4 7a46 46 0 0 1 6-4l10-3c3 0 5 2 6 5l-16 11-29 16a9 9 0 0 1-2 0Z"/><path fill="#a58981" d="m159 299 54 1h10l-8 7-8 7a3 3 0 0 1-2 0l-39-2h-41a5 5 0 0 1 2-5c6-5 12-7 20-7a45 45 0 0 0 12-1ZM101 314c-6 1-11 1-16 3l-34 8-31 10 2-12a3 3 0 0 1 1-1l39-16a10 10 0 0 1 3 0h4a15 15 0 0 0 8 1h8c4-1 8-1 11 4 1 1 4 1 5 3Z"/><path fill="#fee8d6" d="M474 795v-3c-4-5-5-11-6-17 0-5 0-10 3-14 5-8 11-12 20-13s17 4 25 7c12 6 21 15 30 24a15 15 0 0 0 3 2l-10 4c-8-8-16-15-26-21a93 93 0 0 0-11-5c-5-2-10-2-15-2-6 0-10 5-10 12v4c-1 7 3 13 7 19 0 1 2 1 1 3Z"/><path fill="#a58981" d="m468 470 10 11v5l-5 26c-2 6-2 13-2 20l-1 2-17 3 15-67Z"/><path fill="#bda197" d="m314 340-14 20-33 43-18 27a11 11 0 0 1-3 2c11-23 24-43 38-64 4-6 9-12 11-20a29 29 0 0 0 0-5l9-10ZM101 314a10 10 0 0 1-8-4 4 4 0 0 0-2-2 59 59 0 0 0-11 0c-5 1-10 1-14-2h-1l21-5 28-2 27-1 18 1-10 2a79 79 0 0 1-9 1c-4 0-6 2-9 4-3 1-5 3-6 6Z"/><path fill="#fee1d0" d="M258 496c2-1 3 0 5 2 7 8 15 17 19 28 3 7 5 15 3 23s-5 14-13 19c-8 4-16 5-24 4l-6-4v-8h2c9 9 26 5 31-6l1-5a4 4 0 0 1 0-1c3-4 3-5 0-10 2-6-1-10-4-15a81 81 0 0 0-10-15 7 7 0 0 0-5-4 2 2 0 0 1-2-1Z"/><path fill="#fdd9c9" d="M485 795c-3-5-7-10-9-16v-4l-1-9a9 9 0 0 1 3-5 15 15 0 0 1 10-5c15-1 26 7 37 15l13 10 1 4-7 3c-3-5-8-8-12-12a57 57 0 0 0-12-8c-2-3-6-4-10-4l-9 1a9 9 0 0 0-5 2c-4 3-5 5-1 9a5 5 0 0 1 1 1h1c4 4 5 10 9 14a9 9 0 0 0 3 2l2 2-11 1a14 14 0 0 1-3-1Z"/><path fill="#fddcb8" d="m237 602-2 7c-2 4-8 4-12 1l-11-7c-7-5-10-13-12-22a77 77 0 0 1-2-22l1-24v-15c0-1 0-3 2-4a1 1 0 0 1 1 0l-1 20-2 17a91 91 0 0 0 2 19 14 14 0 0 0 8 9l9 8 12 11 7 2Z"/><path fill="#f8f3e7" d="m923 742-15 6c-6-7-9-17-12-26l-3-10c0-2 0-2 2-3l9-1 2 1 17 32a9 9 0 0 1 0 1ZM839 697l17-5 13-4 2 9-2 2-49 16c-2-3 0-5 2-7 6-4 11-9 17-11Z"/><path fill="#fcdcb9" d="m530 844-40 2-36-2c-6-1-12-3-15-9l-1-4 8 3a88 88 0 0 0 28 6l26 2 25-2-1 2a19 19 0 0 1 4-1c1 1 2 1 2 3Z"/><path fill="#fddcb8" d="m427 443-8-6-17-15-5-4 6-12 27 24-3 13Z"/><path fill="#bda197" d="M690 767c2 0 5 1 6 3 2 5-2 7-4 11 3 0 7-1 6 4 0 2-2 4-4 4-2 1-4 0-5-3-3 2-6 6-11 4h-2c-6 4-10 3-12-4Z"/><path fill="#fef5e2" d="M536 615c1-2 2-5 0-8 1-3 5-2 8-4l-4-5 3-11a199 199 0 0 0 23 35l2 3h-4a159 159 0 0 0-25-7c-1-1-3-1-3-3Z"/><path fill="#9d7d72" d="m180 637-5-15-5-18-1-1 6-19 3 10 9 27v4l-7 12Z"/><path fill="#fdbaae" d="M499 795c-5-1-7-5-10-9l-1-2c0-2-1-3-3-4l-1-2 22-4c6 0 9 4 13 8 2 1 1 3-1 4-4 1-9 1-13 3-2 0-3 3-5 4l-1 2Z"/><path fill="#fcdcb9" d="M480 551c-7 10-29 15-38 5-4-5-7-10-6-16 0-2 2-3 3-5l3 12c2 4 5 5 9 5a100 100 0 0 0 24-2l5 1Z"/><path fill="#da8d75" d="M882 733c-5-1-9-4-13-4-7 1-12-5-19-6v-1l27-10 5 21Z"/><path fill="#a58982" d="m446 446 5 6a4 4 0 0 1 0 3l-8 34-2 7c0 1 1 4-2 3s-2-2-2-4l3-23 5-25Z"/><path fill="#fddcb9" d="m340 416-4-5-5-9c-2-6 2-10 8-11 0 7 3 11 7 15l12 11Z"/><path fill="#fddcb8" d="m344 379-17-11 9-12 13 10c2 1 3 1 1 4l-6 9Z"/><path fill="#fefdfd" d="m839 697-14 10c-3 2-5 5-5 8-4 2-4 2-7-1l-5-8a15 15 0 0 1-2-4l25-4 8-1Z"/><path fill="#fed7c8" d="M276 549v6c-3 6-8 10-15 11a60 60 0 0 1-10 0c-4-1-7-3-9-6l1-4 10 1c5 1 10 1 13-4a10 10 0 0 1 10-4Z"/><path fill="#fdc8ba" d="M256 524c1-5 1-7-5-9l3-7c1-2 2 0 4 1 4 3 7 8 9 13l5 10-1 5a24 24 0 0 1-12 2 3 3 0 0 1-2-2c1-2 3-1 5-2-2-4-3-8-6-11Z"/><path fill="#fddcb8" d="M438 530c-7-2-10-7-13-13a102 102 0 0 1-7-12l-1-8 6 10 7 4 8 2Z"/><path fill="#fce6d5" d="m201 516-2 16v3c0-5 0-10-3-15v-6a4 4 0 0 0-2-2v1l-3-1 3-11 9-17 1 4-1 11-1 14-1 3Z"/><path fill="#fdb7aa" d="M256 524c2-1 3 0 3 2l4 10-5 1 1 2-3 2c-3 2-6 3-7 8a3 3 0 0 1-1 2l-4-4 3-16c0-2 1-4 3-4l6-3Z"/><path fill="#fdd6c6" d="m271 537-1-9c-4-7-8-15-14-20a5 5 0 0 0-2 0l1-5a6 6 0 0 0 2 1 7 7 0 0 1 6 3c5 7 10 13 13 21 3 3 2 7 0 10-2 1-4 0-5-1Z"/><path fill="#a58981" d="m379 415-8-6 13-18 6 5a3 3 0 0 1 0 3l-11 16Z"/><path fill="#fdccbc" d="M518 786a6 6 0 0 0-3-7 5 5 0 0 1-2-1 6 6 0 0 0-7-3 14 14 0 0 1 2-7l5 2 13 10v1c4 1 5 3 6 7l-4-1c-3-2-6-1-10-1Z"/><path fill="#fac1a6" d="m201 516 2-32 9-13-6 26-3 17a14 14 0 0 1-1 2Z"/><path fill="#fdfdfd" d="M893 157c1-4 4-6 8-2 3 4 7 7 9 12v5a21 21 0 0 1-4-1c-6-3-10-8-13-14Z"/><path fill="#a58981" d="m366 378 6 4-10 16a2 2 0 0 1-2 1 30 30 0 0 1-4-3Z"/><path fill="#fccbbd" d="m244 547 4 3v-2h1c3 5 8 4 13 4 2 0 4-1 5 1l-1 3c-5 2-10 5-15 2a2 2 0 0 0-2 0c-2 1-4 0-6-2l1-9Z"/><path fill="#faccae" d="M530 844c-1-3-4-1-5-1l-3-1 2-1a4 4 0 0 0 0-1l18-4a142 142 0 0 1 16-2l-16 8Z"/><path fill="#a18a83" d="m533 552 1 4a209 209 0 0 1-8 20l6-24Z"/><path fill="#ebcecd" d="m188 933 13-1-1 4Z"/><path fill="#dfa992" d="m1007 385-4-17-1-7 5 24Z"/><path fill="#a58981" d="M772 821a103 103 0 0 1-10-2 10 10 0 0 1-5-3c-4-5-2-12 4-15 4-3 9-4 14-4a15 15 0 0 1 8 4c2 2 5 3 8 1l6-3c3-2 5-1 8 1a6 6 0 0 1 1 7c-5 12-14 20-24 26a8 8 0 0 1-9-1 7 7 0 0 1-1-8 16 16 0 0 0 0-3Z"/><path fill="#806b65" d="M161 1026c0-12 10-24 21-25 7-1 12 2 16 7 4 7 5 15 1 23-4 7-11 10-19 10a38 38 0 0 1-9 0c-6-2-10-7-10-15Z"/><path fill="#e9b7c5" d="m24 1059-6-9 8-3 2 2-3 10Z"/><path fill="#806b65" d="m536 615 13 4 19 6c14 6 23 17 28 32a21 21 0 0 0 1 2c2 7 4 15 4 23a49 49 0 0 1-8 27l-7 12c-4 5-10 7-17 9-5 1-11 1-16-1a13 13 0 0 1-3-2c-1-1 0-2 1-3a25 25 0 0 1 7-7l13-9c5-3 7-7 9-13a75 75 0 0 0 3-12c-1 1-2 0-2-1a25 25 0 0 1 0-3 8 8 0 0 0-10-7c-7 2-12 10-11 16a8 8 0 0 0 10 7c1-1 3-2 4-1s0 2-1 3a83 83 0 0 1-36 25c-8 2-15 3-23 0a10 10 0 0 1-6-4l-6-8c-4-4-4-9-3-13a56 56 0 0 1 8-25 95 95 0 0 1 34-34l3-2-7-2a168 168 0 0 1-27-11c-2 0-3-1-4-3l-6-5c-2-2-1-3 1-3l11-1Z"/><path fill="#fefefe" d="M506 620c13 7 27 12 41 16l-12 7a86 86 0 0 0-33 42c-3 8-4 17 0 25l-5-2-9-12c-7-9-8-20-7-30 0-4 2-8 4-11l11-21 10-14Z"/><path fill="#806b65" d="M309 717c-4-7-1-14 1-21a31 31 0 0 1 1-3c1-5 5-7 10-5l30 14c10 5 17 12 24 20 6 6 10 12 11 20a14 14 0 0 1-1 7c-3 7-10 13-19 11a48 48 0 0 0-6 0c-5 0-9-4-10-9 0-4 2-7 7-8a28 28 0 0 1 7 0h4c1-2 0-3-1-5-4-6-10-11-15-15-8-7-18-12-27-16-2-1-3-1-4 1l-1 7c-2 4-7 5-11 2Z"/><path fill="#fd8f90" d="M309 717c3 1 5 2 8 0a14 14 0 0 0 2-5l3-9 18 10c10 6 19 13 26 22a27 27 0 0 1 4 7c1 2 0 3-3 3a69 69 0 0 0-10 0c-5 0-7 4-5 8s4 6 8 7c-7 4-13 1-18-3l-10-8c-7-6-13-13-18-21-3-3-3-7-5-11Z"/><path fill="#fefefd" d="M508 718a27 27 0 0 0 19 5c20-3 36-16 48-29l-5 2c-6 2-12-3-12-9 1-7 4-13 12-16 6-2 13 3 12 8a34 34 0 0 0 0 4l3-4c0 8-2 14-5 19-3 9-10 12-16 17-5 3-11 6-14 12l-4 1a54 54 0 0 1-19 2c-8 0-15-4-19-12Z"/><path fill="#fedcb8" d="M366 583c3-3 8-2 11 1 2 2 2 8 0 11a70 70 0 0 1-21 18c-6 3-13 0-13-7a9 9 0 0 1 0-3h3a14 14 0 0 0 12-4 62 62 0 0 0 6-7c2-3 2-6 2-9Z"/><path fill="#806b64" d="M366 583c3 2 2 5 0 8l-11 12c-4 2-8 2-12 0-3-4-3-6 1-9l15-11a6 6 0 0 1 7 0Z"/><path fill="#806b65" d="M266 946c8 0 14 2 19 6 6 4 7 11 5 18-1 6-3 11-9 14s-11 5-17 1c-4-2-8-3-11-6-7-9-7-24 4-31l9-2Z"/><path fill="#938480" d="M98 814c-4 0-4-2-4-4s-1-4 2-5l6 6-4 3Z"/><path fill="#816b65" d="m267 553-9 1c-5 0-8-1-10-6 1-5 5-6 8-9a12 12 0 0 1 3 0l12-2 5 1c5 3 5 8 0 11l-9 4Z"/><path fill="#806b64" d="m508 768-2 7-19 3h-3c-5-4-6-7-4-10a20 20 0 0 1 9-4l12-1c4 0 6 1 7 5Z"/><path fill="#908581" d="m176 1025 6-7c2-2 3-1 4 1 0 6-3 8-10 6Z"/><path fill="#928581" d="m274 968-4 2c-2 1-5-2-5-4a4 4 0 0 1 3-3c2 0 5 0 6 5Z"/></svg>