<svg xmlns="http://www.w3.org/2000/svg" viewBox="0 0 888.34 314.52"><path d="M422.77,580.92a52.63,52.63,0,0,1-8.36,29.18Q406,623,389.94,630.36t-38.21,7.32q-26.49,0-43.7-10a58.18,58.18,0,0,1-19.84-19.22q-7.63-12-7.63-23.38a15.85,15.85,0,0,1,16.24-16,13.79,13.79,0,0,1,9.7,3.66q4,3.66,6.77,10.87a72.41,72.41,0,0,0,7.39,14.28,29.85,29.85,0,0,0,11.17,9.46q7.2,3.72,18.92,3.72,16.11,0,26.18-7.5T387,584.83q0-8.91-5.44-14.47a35,35,0,0,0-14-8.48q-8.61-2.93-23-6.23-19.27-4.51-32.28-10.56a52,52,0,0,1-20.63-16.48Q284,518.18,284,502.67a44.55,44.55,0,0,1,8-26.24q8.07-11.48,23.32-17.64t35.89-6.16q16.49,0,28.5,4.08a60.22,60.22,0,0,1,20,10.87,45.45,45.45,0,0,1,11.6,14.22A32.84,32.84,0,0,1,415,496.33,17.15,17.15,0,0,1,410.38,508,14.6,14.6,0,0,1,399,513.17q-6.23,0-9.46-3.11t-7-10.19q-4.89-10.14-11.72-15.81t-22-5.68q-14,0-22.65,6.17t-8.6,14.83a15,15,0,0,0,2.93,9.28,24.71,24.71,0,0,0,8,6.71,54,54,0,0,0,10.38,4.39q5.25,1.59,17.33,4.64a271.77,271.77,0,0,1,27.41,7.82,83.11,83.11,0,0,1,20.87,10.37A42.76,42.76,0,0,1,418,558Q422.77,567.38,422.77,580.92Z" transform="translate(-95.35 -382.74)" fill="#278fdc"/><path d="M490,474.6v51.27h78.25V474.6q0-11,4.94-16.48a16.67,16.67,0,0,1,13-5.49,17.29,17.29,0,0,1,13.25,5.43q5.06,5.43,5.06,16.54v141q0,11.11-5.12,16.6a17.25,17.25,0,0,1-13.19,5.49q-8.18,0-13.06-5.55t-4.88-16.54V555.41H490v60.18q0,11.11-5.12,16.6a17.25,17.25,0,0,1-13.19,5.49q-8.18,0-13.06-5.55t-4.88-16.54v-141q0-11,4.82-16.48t13.12-5.49A17.29,17.29,0,0,1,485,458.06Q490,463.49,490,474.6Z" transform="translate(-95.35 -382.74)" fill="#278fdc"/><path d="M643.72,560.66V474.6q0-11,4.94-16.48a16.67,16.67,0,0,1,13-5.49q8.43,0,13.37,5.49T680,474.6v88q0,15,3.36,25.09a29,29,0,0,0,11.9,15.62q8.55,5.56,23.93,5.56,21.24,0,30-11.3T758,563.34V474.6q0-11.12,4.88-16.54t13.06-5.43a17.29,17.29,0,0,1,13.25,5.43q5.05,5.43,5.06,16.54v86.06q0,21-4.09,35a54,54,0,0,1-15.44,24.66A59.94,59.94,0,0,1,752,633.53q-12.94,4.15-30.28,4.15-20.62,0-35.52-4.45t-24.29-13.8q-9.4-9.33-13.8-23.92T643.72,560.66Z" transform="translate(-95.35 -382.74)" fill="#278fdc"/><path d="M880.66,474.35l69.7,105.47V473.38q0-10.38,4.45-15.57c3-3.45,7-5.18,12-5.18q7.81,0,12.33,5.18t4.51,15.57V614.12q0,23.57-19.53,23.56a26.06,26.06,0,0,1-8.79-1.4,22.48,22.48,0,0,1-7.32-4.45,43.81,43.81,0,0,1-6.35-7.15q-2.93-4.08-5.86-8.36l-68-104.25V616.93q0,10.26-4.76,15.51a15.77,15.77,0,0,1-12.21,5.24,15.57,15.57,0,0,1-12.33-5.31q-4.63-5.31-4.64-15.44V478.87q0-8.79,2-13.79a19.69,19.69,0,0,1,7.69-9,21,21,0,0,1,11.59-3.47,18.92,18.92,0,0,1,14.47,5.86,44.29,44.29,0,0,1,5.37,6.95Q877.72,469.72,880.66,474.35Z" transform="translate(-95.35 -382.74)" fill="#278fdc"/><path d="M190.43,391.66c-2-10.81-8.35-12-14-2.55L102.53,511.22c-5.69,9.41-1.49,18.72,9.33,20.7l88.94,16.2c10.82,2,18-5.26,16-16.07Z" transform="translate(-95.35 -382.74)" fill="#ef4565"/><path d="M122,688.34c2,10.81,8.35,12,14,2.55l73.86-122.11c5.69-9.41,1.5-18.72-9.32-20.7l-88.94-16.2c-10.83-2-18,5.26-16,16.07Z" transform="translate(-95.35 -382.74)" fill="#ccc"/></svg>