<svg width="1512" height="434" viewBox="0 0 1512 434" fill="none" xmlns="http://www.w3.org/2000/svg">
<path d="M-12 -21C-11 95 59.5 349.5 171 352.5C282.5 355.5 344.5 61.5 345.5 -21" stroke="white" stroke-dasharray="4 4"/>
<path d="M1568 -76C1566.98 82.0734 1495.2 428.881 1381.67 432.969C1268.15 437.057 1205.02 36.4229 1204 -76" stroke="white" stroke-dasharray="4 4"/>
<path d="M367 -93C368.698 -12.5658 488.4 163.904 677.716 165.984C867.032 168.064 972.302 -35.7947 974 -93" stroke="white" stroke-dasharray="4 4"/>
<path d="M216 -21C217.043 61.9186 290.6 243.839 406.934 245.984C523.269 248.128 587.957 37.9723 589 -21" stroke="white" stroke-dasharray="4 4"/>
<path d="M1298 -76C1296.94 37.0426 1222 285.054 1103.48 287.978C984.965 290.901 919.063 4.3967 918 -76" stroke="white" stroke-dasharray="4 4"/>
</svg>
